<svg id="Calque_1" data-name="Calque 1" xmlns="http://www.w3.org/2000/svg" viewBox="0 0 34.04 37.66"><defs><style>.cls-1{fill:none;stroke:#6ba4f2;stroke-miterlimit:10;stroke-width:1.5px;}</style></defs><g id="Groupe_284" data-name="Groupe 284"><path id="Rectangle_174" data-name="Rectangle 174" class="cls-1" d="M3.49,32.86H30.58a2,2,0,0,1,2,2h0a2,2,0,0,1-2,2H3.49a2,2,0,0,1-2-2h0A2,2,0,0,1,3.49,32.86Z" transform="translate(-0.01 -0.01)"/><path id="Rectangle_175" data-name="Rectangle 175" class="cls-1" d="M5.27,12.29h0A1.91,1.91,0,0,1,7.18,14.2V28.92a1.91,1.91,0,0,1-1.91,1.91h0a1.92,1.92,0,0,1-1.91-1.91V14.2A1.92,1.92,0,0,1,5.27,12.29Z" transform="translate(-0.01 -0.01)"/><path id="Rectangle_176" data-name="Rectangle 176" class="cls-1" d="M13.11,12.29h0A1.91,1.91,0,0,1,15,14.2V28.92a1.91,1.91,0,0,1-1.91,1.91h0a1.92,1.92,0,0,1-1.91-1.91V14.2A1.92,1.92,0,0,1,13.11,12.29Z" transform="translate(-0.01 -0.01)"/><path id="Rectangle_177" data-name="Rectangle 177" class="cls-1" d="M21,12.29h0a1.91,1.91,0,0,1,1.91,1.91V28.92A1.91,1.91,0,0,1,21,30.83h0A1.92,1.92,0,0,1,19,28.92V14.2A1.92,1.92,0,0,1,21,12.29Z" transform="translate(-0.01 -0.01)"/><path id="Rectangle_178" data-name="Rectangle 178" class="cls-1" d="M28.79,12.29h0A1.91,1.91,0,0,1,30.7,14.2V28.92a1.91,1.91,0,0,1-1.91,1.91h0a1.92,1.92,0,0,1-1.91-1.91V14.2A1.92,1.92,0,0,1,28.79,12.29Z" transform="translate(-0.01 -0.01)"/><path id="Tracé_95" data-name="Tracé 95" class="cls-1" d="M17,10.26H1.41a.64.64,0,0,1-.65-.64.66.66,0,0,1,.35-.57L7.92,5.47,16.73.83a.64.64,0,0,1,.6,0l8.81,4.64L33,9.05a.64.64,0,0,1-.3,1.21Z" transform="translate(-0.01 -0.01)"/></g></svg>