<svg id="Calque_1" data-name="Calque 1" xmlns="http://www.w3.org/2000/svg" viewBox="0 0 30.85 30.86"><defs><style>.cls-1{fill:#d8d8d8;}</style></defs><g id="icon_dashboard" data-name="icon dashboard"><g id="Groupe_279" data-name="Groupe 279"><path id="Tracé_92" data-name="Tracé 92" class="cls-1" d="M30.18.71h0l0,0a1.82,1.82,0,0,0-.56-.35A4.84,4.84,0,0,0,27.71,0h0A15.83,15.83,0,0,0,21.3,1.59,27.94,27.94,0,0,0,13.07,7.4c-1,1-1.91,2-2.67,2.84a8.73,8.73,0,0,0-7.52,2.53L1.1,14.55c-.62.63-1.31,1.45-1,2.27.33,1,1.66,1.16,3.51,1.4l1.74.26a3.78,3.78,0,0,0,.41,1.78A3.88,3.88,0,0,0,4.68,21C3.34,22.35,1.26,26.62,3,28.35A2.56,2.56,0,0,0,4.85,29a9.42,9.42,0,0,0,5.48-2.34,4,4,0,0,0,.86-1.28,3.67,3.67,0,0,0,1.14.18h.08c.1.6.18,1.2.26,1.74.25,1.84.43,3.17,1.4,3.5a1.21,1.21,0,0,0,.38.06,3.05,3.05,0,0,0,1.88-1.09L18.1,28a8.67,8.67,0,0,0,2.54-7.47c.86-.76,1.81-1.65,2.84-2.68A25.86,25.86,0,0,0,30.2,7.15C31.09,4.21,31.08,1.63,30.18.71Zm-2.5.64a4.44,4.44,0,0,1,1.09.11,1.11,1.11,0,0,1,.45.19c.35.37.62,2.68-.65,6.12a8.38,8.38,0,0,1-3.06-1.95A7.64,7.64,0,0,1,23.4,2.19a13.56,13.56,0,0,1,4.27-.84Zm-26.32,15a2.85,2.85,0,0,1,.69-.89l1.77-1.77a7.39,7.39,0,0,1,5.5-2.22,29.64,29.64,0,0,0-2.83,3.86,7.49,7.49,0,0,0-.93,1.8c-.64-.12-1.25-.2-1.81-.27a8.87,8.87,0,0,1-2.39-.51Zm6,7.62h0c0-.31.41-1.59,3-4.14s3.93-3.21,4.46-3.28c-.07.52-.88,2-3.29,4.45-2.83,2.82-3.92,3-4.12,3Zm2,1.71c-1.21,1.21-4.58,2.55-5.44,1.68S4.42,23.16,5.62,22a2.63,2.63,0,0,1,.84-.56l.38.46c-.94,1.42-1.1,2.46-.46,3.1a1.35,1.35,0,0,0,1,.39,4.24,4.24,0,0,0,2.17-.88l.44.32a2.76,2.76,0,0,1-.6.93Zm7.77,1.34-1.77,1.77a2.81,2.81,0,0,1-.88.69,8.93,8.93,0,0,1-.5-2.39c-.08-.56-.16-1.16-.27-1.8a7.35,7.35,0,0,0,1.81-.92,28.57,28.57,0,0,0,3.84-2.8,7.39,7.39,0,0,1-2.23,5.45ZM22.53,16.9a41.66,41.66,0,0,1-7.67,6.34l0,0c-1.88,1.27-3,1.15-4.16.35.55-.46,1.14-1,1.78-1.64,1.82-1.82,4.67-5.07,3.35-6.4a1.27,1.27,0,0,0-.92-.35c-.82,0-2.44.64-5.5,3.67-.66.67-1.23,1.28-1.69,1.85-1.22-1.43-1.47-2.58,0-4.66l0-.05A42,42,0,0,1,14,8.34a26.59,26.59,0,0,1,8.11-5.66,9.24,9.24,0,0,0,2.43,4.1A9.6,9.6,0,0,0,28.07,9a26,26,0,0,1-5.54,7.88Z" transform="translate(-0.01 -0.01)"/><path id="Tracé_93" data-name="Tracé 93" class="cls-1" d="M22.68,13.19l.05-.06.06-.07,0-.06.06-.09,0-.06a.35.35,0,0,0,.05-.08l0-.06.05-.1,0-.06,0-.1,0,0s0-.07,0-.1l0-.05,0-.11v0a.56.56,0,0,0,0-.12,0,0,0,0,1,0,0,1,1,0,0,0,0-.14h0a3.56,3.56,0,0,0-.92-3.36h0a3.51,3.51,0,0,0-4.16-.65,3.56,3.56,0,0,0,1,6.66,3.5,3.5,0,0,0,3.19-1h0s0,0,0-.05l.07-.08.05-.05Zm-1.19-.68a2.21,2.21,0,0,1-2,.61h0l-.09,0a2.22,2.22,0,0,1-1-3.71h0A1.92,1.92,0,0,1,18.89,9a2.07,2.07,0,0,1,1-.25,2.13,2.13,0,0,1,1.56.65,2.19,2.19,0,0,1,.33,2.71,2.59,2.59,0,0,1-.32.42Z" transform="translate(-0.01 -0.01)"/></g></g></svg>