<svg id="Calque_1" data-name="Calque 1" xmlns="http://www.w3.org/2000/svg" viewBox="0 0 28.4 26.15"><defs><style>.cls-1{fill:#d8d8d8;}</style></defs><g id="icon_corpora_dictionaries" data-name="icon corpora dictionaries"><g id="Groupe_269" data-name="Groupe 269"><g id="Groupe_267" data-name="Groupe 267"><g id="Tracé_73" data-name="Tracé 73"><path class="cls-1" d="M16.25,26.14A.37.37,0,0,1,16,26a.68.68,0,0,1-.4-.6v-17a.55.55,0,0,1,.3-.5A20.11,20.11,0,0,1,27.65,4a.67.67,0,0,1,.7.6v17c0,.2-.1.3-.2.5a.76.76,0,0,1-.5.2h0a18.22,18.22,0,0,0-11,3.7A.6.6,0,0,1,16.25,26.14Zm.6-17.3v15.4A19.15,19.15,0,0,1,27,21V5.44A18.53,18.53,0,0,0,16.85,8.84Z" transform="translate(0.05 0.02)"/></g><g id="Rectangle_172" data-name="Rectangle 172"><path class="cls-1" d="M16.25,26.14h-4.2c-.4,0-.6-.3-.6-.7v-17a.58.58,0,0,1,.6-.6h4.2a.67.67,0,0,1,.7.6v17A.84.84,0,0,1,16.25,26.14Zm-3.5-1.3h2.9V9.24h-2.9Z" transform="translate(0.05 0.02)"/></g><g id="Tracé_74" data-name="Tracé 74"><path class="cls-1" d="M12.05,26.14a.6.6,0,0,1-.4-.1,18,18,0,0,0-11-3.7h0c-.2,0-.3-.1-.5-.2s-.2-.3-.2-.5V4.74c0-.4.3-.6.7-.6A20.11,20.11,0,0,1,12.45,8a.55.55,0,0,1,.3.5v17a.62.62,0,0,1-.4.6ZM1.25,21a19.15,19.15,0,0,1,10.1,3.2V8.84a18,18,0,0,0-10.1-3.4Z" transform="translate(0.05 0.02)"/></g></g><g id="Groupe_268" data-name="Groupe 268"><g id="Tracé_75" data-name="Tracé 75"><path class="cls-1" d="M15.18,9.15a.76.76,0,0,1-.4-.1h0a.55.55,0,0,1-.3-.5.75.75,0,0,1,.1-.5,20.11,20.11,0,0,1,10.7-6.4.75.75,0,0,1,.5.1c.2.1.2.3.2.5a.56.56,0,0,1-.5.6,18.82,18.82,0,0,0-10,6C15.58,9.15,15.38,9.15,15.18,9.15Z" transform="translate(0.05 0.02)"/></g><g id="Tracé_76" data-name="Tracé 76"><path class="cls-1" d="M14.18,9.15h0a.71.71,0,0,1-.6-.3.37.37,0,0,1-.1-.3.37.37,0,0,1,.1-.3A19.72,19.72,0,0,1,23,.05a.47.47,0,0,1,.6.1.55.55,0,0,1,.3.5.68.68,0,0,1-.4.6,18.38,18.38,0,0,0-8.7,7.6A.71.71,0,0,1,14.18,9.15Z" transform="translate(0.05 0.02)"/></g><g id="Tracé_77" data-name="Tracé 77"><path class="cls-1" d="M13.08,9.15a.76.76,0,0,1-.5-.2,18.82,18.82,0,0,0-10-6c-.2,0-.4-.3-.4-.6a.76.76,0,0,1,.2-.5.44.44,0,0,1,.5-.1,19.4,19.4,0,0,1,10.7,6.4.76.76,0,0,1,.2.5.52.52,0,0,1-.2.4A.9.9,0,0,1,13.08,9.15Z" transform="translate(0.05 0.02)"/></g><g id="Tracé_78" data-name="Tracé 78"><path class="cls-1" d="M14.18,9.15a.86.86,0,0,1-.6-.3,18.16,18.16,0,0,0-8.8-7.6.68.68,0,0,1-.4-.6.55.55,0,0,1,.3-.5,1.27,1.27,0,0,1,.6-.1,19.27,19.27,0,0,1,9.4,8.2.37.37,0,0,1,.1.3.56.56,0,0,1-.5.6Z" transform="translate(0.05 0.02)"/></g></g></g></g></svg>