<svg id="Calque_1" data-name="Calque 1" xmlns="http://www.w3.org/2000/svg" viewBox="0 0 28.5 28.5"><defs><style>.cls-1{fill:#d8d8d8;}</style></defs><g id="icon_Accueil" data-name="icon Accueil"><g id="Groupe_247" data-name="Groupe 247"><g id="Rectangle_150" data-name="Rectangle 150"><path class="cls-1" d="M10.75,13.5h-8A2.75,2.75,0,0,1,0,10.75v-8A2.75,2.75,0,0,1,2.75,0h8A2.75,2.75,0,0,1,13.5,2.75v8A2.75,2.75,0,0,1,10.75,13.5Zm-8-12A1.25,1.25,0,0,0,1.5,2.75v8A1.25,1.25,0,0,0,2.75,12h8A1.25,1.25,0,0,0,12,10.75v-8A1.25,1.25,0,0,0,10.75,1.5Z"/></g><g id="Rectangle_150-2" data-name="Rectangle 150-2"><path class="cls-1" d="M25.75,13.5h-8A2.75,2.75,0,0,1,15,10.75v-8A2.75,2.75,0,0,1,17.75,0h8A2.75,2.75,0,0,1,28.5,2.75v8A2.75,2.75,0,0,1,25.75,13.5Zm-8-12A1.25,1.25,0,0,0,16.5,2.75v8A1.25,1.25,0,0,0,17.75,12h8A1.25,1.25,0,0,0,27,10.75v-8A1.25,1.25,0,0,0,25.75,1.5Z"/></g><g id="Rectangle_150-3" data-name="Rectangle 150-3"><path class="cls-1" d="M10.75,28.5h-8A2.75,2.75,0,0,1,0,25.75v-8A2.75,2.75,0,0,1,2.75,15h8a2.75,2.75,0,0,1,2.75,2.75v8A2.75,2.75,0,0,1,10.75,28.5Zm-8-12A1.25,1.25,0,0,0,1.5,17.75v8A1.25,1.25,0,0,0,2.75,27h8A1.25,1.25,0,0,0,12,25.75v-8a1.25,1.25,0,0,0-1.25-1.25Z"/></g><g id="Rectangle_150-4" data-name="Rectangle 150-4"><path class="cls-1" d="M25.75,28.5h-8A2.75,2.75,0,0,1,15,25.75v-8A2.75,2.75,0,0,1,17.75,15h8a2.75,2.75,0,0,1,2.75,2.75v8A2.75,2.75,0,0,1,25.75,28.5Zm-8-12a1.25,1.25,0,0,0-1.25,1.25v8A1.25,1.25,0,0,0,17.75,27h8A1.25,1.25,0,0,0,27,25.75v-8a1.25,1.25,0,0,0-1.25-1.25Z"/></g></g></g></svg>