<?xml version="1.0" encoding="utf-8"?>
<!-- Generator: Adobe Illustrator 25.2.1, SVG Export Plug-In . SVG Version: 6.00 Build 0)  -->
<svg version="1.1" id="Calque_1" xmlns="http://www.w3.org/2000/svg" xmlns:xlink="http://www.w3.org/1999/xlink" x="0px" y="0px"
	 viewBox="0 0 589 520" style="enable-background:new 0 0 589 520;" xml:space="preserve">
<g>
	<path d="M248.9,360.7c-76.4,0-138.5-62.1-138.5-138.5c0-76.4,62.1-138.5,138.5-138.5c76.4,0,138.5,62.1,138.5,138.5
		C387.4,298.6,325.3,360.7,248.9,360.7z M248.9,133.7c-48.8,0-88.5,39.7-88.5,88.5c0,48.8,39.7,88.5,88.5,88.5s88.5-39.7,88.5-88.5
		C337.4,173.4,297.7,133.7,248.9,133.7z"/>
</g>
<g>
	<rect x="318" y="329" transform="matrix(0.7071 0.7071 -0.7071 0.7071 364.9628 -167.3577)" width="133" height="55.7"/>
</g>
</svg>
