<svg id="Parametre" xmlns="http://www.w3.org/2000/svg" viewBox="0 0 29.48 30.27"><defs><style>.cls-1{fill:#d8d8d8;}</style></defs><path id="Tracé_94" data-name="Tracé 94" class="cls-1" d="M17.64,30.27h-5.8a1.35,1.35,0,0,1-1.34-1.16L10,25.63a11.78,11.78,0,0,1-2-1.15L4.75,25.8a1.37,1.37,0,0,1-1.68-.6l-2.88-5a1.36,1.36,0,0,1,.32-1.74L3.3,16.28c0-.43-.06-.8-.06-1.15A10.88,10.88,0,0,1,3.3,14L.51,11.82a1.36,1.36,0,0,1-.32-1.75l2.9-5a1.32,1.32,0,0,1,1.66-.59L8,5.79a11.31,11.31,0,0,1,2-1.15l.5-3.49A1.34,1.34,0,0,1,11.84,0h5.8A1.35,1.35,0,0,1,19,1.16l.5,3.48a11.78,11.78,0,0,1,2,1.15l3.28-1.32a1.35,1.35,0,0,1,1.67.6l2.9,5A1.36,1.36,0,0,1,29,11.81L26.19,14a11,11,0,0,1,0,2.29L29,18.45a1.37,1.37,0,0,1,.34,1.73l-2.91,5a1.33,1.33,0,0,1-1.66.59l-3.29-1.32a11.78,11.78,0,0,1-2,1.15L19,29.12A1.35,1.35,0,0,1,17.64,30.27ZM8.13,23.13a.59.59,0,0,1,.38.14,10.2,10.2,0,0,0,2.31,1.33.62.62,0,0,1,.38.49l.55,3.85,5.89.06.64-3.91a.62.62,0,0,1,.38-.49A10.63,10.63,0,0,0,21,23.26a.63.63,0,0,1,.62-.08l3.61,1.45,3-5.07a.11.11,0,0,0,0-.12l-3.06-2.39a.64.64,0,0,1-.23-.58,11.9,11.9,0,0,0,.1-1.34,11.9,11.9,0,0,0-.1-1.34.64.64,0,0,1,.23-.58l3.07-2.39a.11.11,0,0,0,0-.12l-2.9-5-3.71,1.4A.65.65,0,0,1,21,7a9.87,9.87,0,0,0-2.31-1.34.65.65,0,0,1-.39-.5l-.55-3.84-5.88-.07L11.2,5.17a.63.63,0,0,1-.39.5A10.17,10.17,0,0,0,8.51,7a.65.65,0,0,1-.62.08L4.28,5.64l-3,5.07,3.08,2.51a.62.62,0,0,1,.23.57,12.08,12.08,0,0,0-.1,1.34,12.26,12.26,0,0,0,.1,1.35.62.62,0,0,1-.23.57L1.29,19.44a.12.12,0,0,0,0,.13l2.9,5,3.71-1.4A.64.64,0,0,1,8.13,23.13Zm6.61-1.69a6.31,6.31,0,1,1,6.31-6.31h0a6.32,6.32,0,0,1-6.31,6.31Zm0-11.35a5,5,0,1,0,5,5,5,5,0,0,0-5-5Z" transform="translate(0 0)"/></svg>